<svg xmlns="http://www.w3.org/2000/svg" version="1.1" xmlns:xlink="http://www.w3.org/1999/xlink" xmlns:svgjs="http://svgjs.dev/svgjs" width="1000" height="1000" viewBox="0 0 1000 1000"><rect width="1000" height="1000" fill="#000000"></rect><g transform="matrix(0.7,0,0,0.7,149.57575757575756,282.1265587044535)"><svg viewBox="0 0 396 247" data-background-color="#ffffff" preserveAspectRatio="xMidYMid meet" height="623" width="1000" xmlns="http://www.w3.org/2000/svg" xmlns:xlink="http://www.w3.org/1999/xlink"><g id="tight-bounds" transform="matrix(1,0,0,1,0.2400000000000091,-0.09999999999999432)"><svg viewBox="0 0 395.52 247.2" height="247.2" width="395.52"><g><svg></svg></g><g><svg viewBox="0 0 395.52 247.2" height="247.2" width="395.52"><g transform="matrix(1,0,0,1,75.54432,100.03697691653028)"><svg viewBox="0 0 244.43135999999998 47.126046166939446" height="47.126046166939446" width="244.43135999999998"><g><svg viewBox="0 0 244.43135999999998 47.126046166939446" height="47.126046166939446" width="244.43135999999998"><g><svg viewBox="0 0 244.43135999999998 47.126046166939446" height="47.126046166939446" width="244.43135999999998"><g><svg viewBox="0 0 244.43135999999998 47.126046166939446" height="47.126046166939446" width="244.43135999999998"><g id="textblocktransform"><svg viewBox="0 0 244.43135999999998 47.126046166939446" height="47.126046166939446" width="244.43135999999998" id="textblock"><g><svg viewBox="0 0 244.43135999999998 47.126046166939446" height="47.126046166939446" width="244.43135999999998"><g transform="matrix(1,0,0,1,0,0)"><svg width="244.43135999999998" viewBox="4 -29.450000762939453 152.74000549316406 29.450000762939453" height="47.126046166939446" data-palette-color="#152f2e"><path d="M28.8 0L4 0 4.5-4 4.5-29.4 14.1-29.4 14.1-6.85 31.8-6.85 34.8-0.55Q34.8-0.35 33.45-0.18 32.1 0 28.8 0L28.8 0ZM63.05 0L48.45 0Q43.15 0 40.72-2.38 38.3-4.75 38.3-9.95L38.3-9.95 38.3-19.5Q38.3-24.6 40.7-27 43.1-29.4 48.45-29.4L48.45-29.4 63.05-29.4Q68.3-29.4 70.72-27 73.15-24.6 73.15-19.5L73.15-19.5 73.15-9.95Q73.15-4.75 70.7-2.38 68.25 0 63.05 0L63.05 0ZM51.9-6.8L51.9-6.8 59.65-6.8Q63.55-6.8 63.55-10.35L63.55-10.35 63.55-19.1Q63.55-22.6 59.65-22.6L59.65-22.6 51.9-22.6Q49.9-22.6 48.9-21.8 47.9-21 47.9-19.1L47.9-19.1 47.9-10.35Q47.9-8.5 48.9-7.65 49.9-6.8 51.9-6.8ZM106.2 0L90.3 0Q84.95 0 82.55-2.35 80.15-4.7 80.15-9.95L80.15-9.95 80.15-19.1Q80.15-24.5 82.8-26.98 85.45-29.45 90.3-29.45L90.3-29.45 107-29.45Q110.45-29.45 112.27-29.08 114.1-28.7 114.1-28.3L114.1-28.3 112.55-22.05Q111.3-22.2 107.67-22.38 104.05-22.55 98.55-22.55L98.55-22.55 93.9-22.55Q91.55-22.55 90.72-21.68 89.9-20.8 89.9-19L89.9-19 89.9-10.45Q89.9-8.75 90.62-7.83 91.35-6.9 93.9-6.9L93.9-6.9 97.95-6.9Q100.25-6.9 102.1-6.93 103.95-6.95 105.35-7L105.35-7 105.35-10.8 103.35-10.75 96.8-10.25 96.8-17.15 114.9-17.15 114.9-2.1 115.4-1.05Q115.4-0.65 113.3-0.33 111.2 0 106.2 0L106.2 0ZM146.64 0L132.04 0Q126.74 0 124.32-2.38 121.89-4.75 121.89-9.95L121.89-9.95 121.89-19.5Q121.89-24.6 124.29-27 126.69-29.4 132.04-29.4L132.04-29.4 146.64-29.4Q151.89-29.4 154.32-27 156.74-24.6 156.74-19.5L156.74-19.5 156.74-9.95Q156.74-4.75 154.29-2.38 151.84 0 146.64 0L146.64 0ZM135.49-6.8L135.49-6.8 143.24-6.8Q147.14-6.8 147.14-10.35L147.14-10.35 147.14-19.1Q147.14-22.6 143.24-22.6L143.24-22.6 135.49-22.6Q133.49-22.6 132.49-21.8 131.49-21 131.49-19.1L131.49-19.1 131.49-10.35Q131.49-8.5 132.49-7.65 133.49-6.8 135.49-6.8Z" opacity="1" transform="matrix(1,0,0,1,0,0)" fill="#ffffff" class="wordmark-text-0" data-fill-palette-color="primary" id="text-0"></path></svg></g></svg></g></svg></g></svg></g></svg></g></svg></g></svg></g><path d="M189.006 94.037L189.006 32.992 7.791 32.992 7.791 214.208 189.006 214.208 189.006 153.163 184.756 153.163 184.756 209.958 12.041 209.958 12.041 37.242 184.756 37.242 184.756 94.037Z" fill="#ffffff" stroke="transparent" data-fill-palette-color="primary"></path></svg></g><defs></defs></svg><rect width="395.52" height="247.2" fill="none" stroke="none" visibility="hidden"></rect></g></svg></g></svg>